<svg aria-hidden="true" xmlns="http://www.w3.org/2000/svg" xmlns:xlink="http://www.w3.org/1999/xlink"><symbol viewBox="0 0 16 16" fill="none" id="arrow-up" xmlns="http://www.w3.org/2000/svg">
<path d="M9 8V16H7V8H0L8 0L16 8H9Z" fill="currentColor"/>
</symbol><symbol viewBox="0 0 20 20" fill="none" id="copyright" xmlns="http://www.w3.org/2000/svg">
<path d="M10 0C15.52 0 20 4.48 20 10C20 15.52 15.52 20 10 20C4.48 20 0 15.52 0 10C0 4.48 4.48 0 10 0ZM10 2C5.58 2 2 5.58 2 10C2 14.42 5.58 18 10 18C14.42 18 18 14.42 18 10C18 5.58 14.42 2 10 2ZM10 5C11.82 5 13.413 5.973 14.288 7.428L12.574 8.457C12.3043 8.00724 11.9213 7.63605 11.4634 7.38045C11.0055 7.12484 10.4885 6.99374 9.96412 7.00023C9.43971 7.00672 8.92617 7.15056 8.4747 7.41742C8.02323 7.68428 7.6496 8.06483 7.39107 8.52112C7.13254 8.97742 6.99815 9.49351 7.00128 10.0179C7.00442 10.5424 7.14498 11.0568 7.40895 11.51C7.67292 11.9632 8.05107 12.3392 8.5057 12.6007C8.96033 12.8621 9.47556 12.9998 10 13C10.5181 13.0003 11.0275 12.8664 11.4785 12.6112C11.9294 12.356 12.3065 11.9883 12.573 11.544L14.288 12.572C13.726 13.5106 12.8716 14.239 11.8559 14.6453C10.8402 15.0517 9.71922 15.1137 8.6649 14.8217C7.61058 14.5298 6.68114 13.9 6.01914 13.029C5.35713 12.1581 4.99912 11.094 5 10C5 7.24 7.24 5 10 5Z" fill="currentColor"/>
</symbol><symbol viewBox="0 0 22 16" fill="none" id="development" xmlns="http://www.w3.org/2000/svg">
<path d="M22 8L14.929 15.071L13.515 13.657L19.172 8L13.515 2.343L14.929 0.929001L22 8ZM2.828 8L8.485 13.657L7.071 15.071L0 8L7.071 0.929001L8.485 2.343L2.828 8Z" fill="currentColor"/>
</symbol><symbol viewBox="0 0 18 20" fill="none" id="documents" xmlns="http://www.w3.org/2000/svg">
<path d="M5.99999 0.00300002V0H16.998C17.55 0 18 0.455 18 0.992V19.008C17.9997 19.2712 17.895 19.5235 17.7088 19.7095C17.5226 19.8955 17.2702 20 17.007 20H0.992994C0.861671 19.9991 0.731815 19.9723 0.61084 19.9212C0.489864 19.8701 0.38014 19.7957 0.28793 19.7022C0.195721 19.6087 0.122834 19.4979 0.0734292 19.3762C0.024025 19.2545 -0.000928322 19.1243 -5.8446e-06 18.993V6L5.99999 0.00300002ZM2.82999 6H5.99999V2.83L2.82999 6ZM7.99999 2V7C7.99999 7.26522 7.89464 7.51957 7.7071 7.70711C7.51956 7.89464 7.26521 8 6.99999 8H1.99999V18H16V2H7.99999Z" fill="currentColor"/>
</symbol><symbol viewBox="0 0 11 20" fill="none" id="facebook" xmlns="http://www.w3.org/2000/svg">
<path d="M7 11.5H9.5L10.5 7.5H7V5.5C7 4.47 7 3.5 9 3.5H10.5V0.14C10.174 0.0970001 8.943 0 7.643 0C4.928 0 3 1.657 3 4.7V7.5H0V11.5H3V20H7V11.5Z" fill="currentColor"/>
</symbol><symbol viewBox="0 0 20 20" fill="none" id="instagram" xmlns="http://www.w3.org/2000/svg">
<path d="M10 0C12.717 0 13.056 0.00999994 14.122 0.0599999C15.187 0.11 15.912 0.277 16.55 0.525C17.21 0.779 17.766 1.123 18.322 1.678C18.8305 2.1779 19.224 2.78259 19.475 3.45C19.722 4.087 19.89 4.813 19.94 5.878C19.987 6.944 20 7.283 20 10C20 12.717 19.99 13.056 19.94 14.122C19.89 15.187 19.722 15.912 19.475 16.55C19.2247 17.2178 18.8311 17.8226 18.322 18.322C17.822 18.8303 17.2173 19.2238 16.55 19.475C15.913 19.722 15.187 19.89 14.122 19.94C13.056 19.987 12.717 20 10 20C7.283 20 6.944 19.99 5.878 19.94C4.813 19.89 4.088 19.722 3.45 19.475C2.78233 19.2245 2.17753 18.8309 1.678 18.322C1.16941 17.8222 0.775931 17.2175 0.525 16.55C0.277 15.913 0.11 15.187 0.0599999 14.122C0.0129999 13.056 0 12.717 0 10C0 7.283 0.00999994 6.944 0.0599999 5.878C0.11 4.812 0.277 4.088 0.525 3.45C0.775236 2.78218 1.1688 2.17732 1.678 1.678C2.17767 1.16923 2.78243 0.775729 3.45 0.525C4.088 0.277 4.812 0.11 5.878 0.0599999C6.944 0.0129999 7.283 0 10 0ZM10 5C8.67392 5 7.40215 5.52678 6.46447 6.46447C5.52678 7.40215 5 8.67392 5 10C5 11.3261 5.52678 12.5979 6.46447 13.5355C7.40215 14.4732 8.67392 15 10 15C11.3261 15 12.5979 14.4732 13.5355 13.5355C14.4732 12.5979 15 11.3261 15 10C15 8.67392 14.4732 7.40215 13.5355 6.46447C12.5979 5.52678 11.3261 5 10 5ZM16.5 4.75C16.5 4.41848 16.3683 4.10054 16.1339 3.86612C15.8995 3.6317 15.5815 3.5 15.25 3.5C14.9185 3.5 14.6005 3.6317 14.3661 3.86612C14.1317 4.10054 14 4.41848 14 4.75C14 5.08152 14.1317 5.39946 14.3661 5.63388C14.6005 5.8683 14.9185 6 15.25 6C15.5815 6 15.8995 5.8683 16.1339 5.63388C16.3683 5.39946 16.5 5.08152 16.5 4.75ZM10 7C10.7956 7 11.5587 7.31607 12.1213 7.87868C12.6839 8.44129 13 9.20435 13 10C13 10.7956 12.6839 11.5587 12.1213 12.1213C11.5587 12.6839 10.7956 13 10 13C9.20435 13 8.44129 12.6839 7.87868 12.1213C7.31607 11.5587 7 10.7956 7 10C7 9.20435 7.31607 8.44129 7.87868 7.87868C8.44129 7.31607 9.20435 7 10 7Z" fill="currentColor"/>
</symbol><symbol viewBox="0 0 32 26" fill="none" id="mail" xmlns="http://www.w3.org/2000/svg">
<path d="M4 1H28C29.65 1 31 2.35 31 4V22C31 23.65 29.65 25 28 25H4C2.35 25 1 23.65 1 22V4C1 2.35 2.35 1 4 1Z" stroke="currentColor" stroke-width="2" stroke-linecap="round" stroke-linejoin="round"/>
<path d="M31 4L16 14.5L1 4" stroke="currentColor" stroke-width="2" stroke-linecap="round" stroke-linejoin="round"/>
</symbol><symbol viewBox="0 0 30 36" fill="none" id="map" xmlns="http://www.w3.org/2000/svg">
<path d="M28.5 15C28.5 25.5 15 34.5 15 34.5C15 34.5 1.5 25.5 1.5 15C1.5 11.4196 2.92232 7.9858 5.45406 5.45406C7.9858 2.92232 11.4196 1.5 15 1.5C18.5804 1.5 22.0142 2.92232 24.5459 5.45406C27.0777 7.9858 28.5 11.4196 28.5 15Z" stroke="currentColor" stroke-width="2" stroke-linecap="round" stroke-linejoin="round"/>
<path d="M15 19.5C17.4853 19.5 19.5 17.4853 19.5 15C19.5 12.5147 17.4853 10.5 15 10.5C12.5147 10.5 10.5 12.5147 10.5 15C10.5 17.4853 12.5147 19.5 15 19.5Z" stroke="currentColor" stroke-width="2" stroke-linecap="round" stroke-linejoin="round"/>
</symbol><symbol viewBox="0 0 20 20" fill="none" id="message" xmlns="http://www.w3.org/2000/svg">
<path fill-rule="evenodd" clip-rule="evenodd" d="M5.0002 9.99927C5.0002 9.44727 5.4482 8.99927 6.0002 8.99927C6.5522 8.99927 7.0002 9.44727 7.0002 9.99927C7.0002 10.5513 6.5522 10.9993 6.0002 10.9993C5.4482 10.9993 5.0002 10.5513 5.0002 9.99927ZM10.0002 8.99927C9.4482 8.99927 9.0002 9.44727 9.0002 9.99927C9.0002 10.5513 9.4482 10.9993 10.0002 10.9993C10.5522 10.9993 11.0002 10.5513 11.0002 9.99927C11.0002 9.44727 10.5522 8.99927 10.0002 8.99927ZM14.0002 8.99927C13.4482 8.99927 13.0002 9.44727 13.0002 9.99927C13.0002 10.5513 13.4482 10.9993 14.0002 10.9993C14.5522 10.9993 15.0002 10.5513 15.0002 9.99927C15.0002 9.44727 14.5522 8.99927 14.0002 8.99927ZM17.8986 11.2942C17.3916 14.5482 14.7686 17.2472 11.5196 17.8562C9.9506 18.1522 8.3526 17.9832 6.9026 17.3692C6.4916 17.1952 6.0666 17.1072 5.6496 17.1072C5.4596 17.1072 5.2716 17.1252 5.0866 17.1622L2.2746 17.7242L2.8376 14.9072C2.9556 14.3222 2.8836 13.6962 2.6306 13.0972C2.0166 11.6472 1.8486 10.0502 2.1436 8.48017C2.7526 5.23117 5.4506 2.60817 8.7056 2.10117C11.2956 1.69817 13.8286 2.51417 15.6566 4.34217C17.4856 6.17117 18.3026 8.70517 17.8986 11.2942ZM17.0716 2.92817C14.7866 0.644171 11.6266 -0.374829 8.3976 0.124171C4.3206 0.760171 0.9406 4.04417 0.1776 8.11117C-0.1904 10.0692 0.0216002 12.0632 0.7886 13.8762C0.8856 14.1072 0.9156 14.3222 0.8776 14.5152L0.0196002 18.8032C-0.0463998 19.1312 0.0566002 19.4702 0.2936 19.7062C0.4826 19.8962 0.7376 19.9992 1.0006 19.9992C1.0656 19.9992 1.1306 19.9932 1.1966 19.9802L5.4796 19.1232C5.7256 19.0762 5.9636 19.1452 6.1226 19.2112C7.9376 19.9782 9.9316 20.1892 11.8876 19.8222C15.9556 19.0592 19.2396 15.6792 19.8756 11.6022C20.3776 8.37517 19.3566 5.21317 17.0716 2.92817Z" fill="currentColor"/>
</symbol><symbol viewBox="0 0 14 18" fill="none" id="person" xmlns="http://www.w3.org/2000/svg">
<path fill-rule="evenodd" clip-rule="evenodd" d="M9 4C9 2.897 8.103 2 7 2C5.897 2 5 2.897 5 4C5 5.103 5.897 6 7 6C8.103 6 9 5.103 9 4ZM11 4C11 6.206 9.206 8 7 8C4.794 8 3 6.206 3 4C3 1.794 4.794 0 7 0C9.206 0 11 1.794 11 4ZM0 17C0 13.14 3.141 10 7 10C10.859 10 14 13.14 14 17C14 17.552 13.553 18 13 18C12.447 18 12 17.552 12 17C12 14.243 9.757 12 7 12C4.243 12 2 14.243 2 17C2 17.552 1.553 18 1 18C0.447 18 0 17.552 0 17Z" fill="currentColor"/>
</symbol><symbol viewBox="0 0 34 34" fill="none" id="phone" xmlns="http://www.w3.org/2000/svg">
<path d="M20.575 7.5C22.0401 7.78585 23.3866 8.50239 24.4421 9.5579C25.4976 10.6134 26.2142 11.9599 26.5 13.425L20.575 7.5ZM20.575 1.5C23.6189 1.83815 26.4574 3.20126 28.6244 5.36551C30.7913 7.52976 32.158 10.3665 32.5 13.41L20.575 1.5ZM31 25.38V29.88C31.0017 30.2978 30.9161 30.7113 30.7488 31.094C30.5814 31.4768 30.336 31.8204 30.0281 32.1028C29.7203 32.3852 29.3569 32.6002 28.9611 32.7341C28.5654 32.8679 28.1461 32.9176 27.73 32.88C23.1143 32.3785 18.6805 30.8012 14.785 28.275C11.1607 25.972 8.08801 22.8993 5.78501 19.275C3.24997 15.3618 1.67237 10.9065 1.18001 6.27C1.14252 5.8552 1.19182 5.43714 1.32476 5.04244C1.4577 4.64773 1.67136 4.28503 1.95216 3.97743C2.23295 3.66983 2.57471 3.42406 2.95569 3.25578C3.33667 3.0875 3.74852 3.00039 4.16501 3H8.66501C9.39297 2.99284 10.0987 3.25062 10.6506 3.7253C11.2026 4.19998 11.5631 4.85917 11.665 5.58C11.8549 7.0201 12.2072 8.43409 12.715 9.795C12.9168 10.3319 12.9605 10.9154 12.8409 11.4763C12.7212 12.0373 12.4433 12.5522 12.04 12.96L10.135 14.865C12.2703 18.6203 15.3797 21.7297 19.135 23.865L21.04 21.96C21.4478 21.5567 21.9627 21.2788 22.5237 21.1591C23.0846 21.0395 23.6681 21.0832 24.205 21.285C25.5659 21.7928 26.9799 22.1451 28.42 22.335C29.1487 22.4378 29.8141 22.8048 30.2898 23.3662C30.7655 23.9277 31.0183 24.6444 31 25.38Z" stroke="currentColor" stroke-width="2" stroke-linecap="round" stroke-linejoin="round"/>
</symbol><symbol viewBox="0 0 21 21" fill="none" id="search" xmlns="http://www.w3.org/2000/svg">
<path d="M16.031 14.617L20.314 18.899L18.899 20.314L14.617 16.031C13.0237 17.3082 11.042 18.0029 9 18C4.032 18 0 13.968 0 9C0 4.032 4.032 0 9 0C13.968 0 18 4.032 18 9C18.0029 11.042 17.3082 13.0237 16.031 14.617ZM14.025 13.875C15.2941 12.5699 16.0029 10.8204 16 9C16 5.132 12.867 2 9 2C5.132 2 2 5.132 2 9C2 12.867 5.132 16 9 16C10.8204 16.0029 12.5699 15.2941 13.875 14.025L14.025 13.875Z" fill="currentColor"/>
</symbol><symbol viewBox="0 0 21 21" fill="none" id="send-plane" xmlns="http://www.w3.org/2000/svg">
<path d="M0.945998 7.31501C0.423998 7.14101 0.418998 6.86001 0.955998 6.68101L20.043 0.31901C20.572 0.14301 20.875 0.43901 20.727 0.95701L15.273 20.043C15.123 20.572 14.818 20.59 14.594 20.088L11 12L17 4.00001L9 10L0.945998 7.31501Z" fill="currentColor"/>
</symbol><symbol viewBox="0 0 20 20" fill="none" id="setting" xmlns="http://www.w3.org/2000/svg">
<path d="M0 10C0 9.135 0.11 8.297 0.316 7.496C0.868465 7.52504 1.4182 7.40075 1.90444 7.13687C2.39068 6.87299 2.79448 6.47979 3.07121 6.00074C3.34793 5.5217 3.48681 4.97546 3.47247 4.42242C3.45814 3.86938 3.29117 3.33107 2.99 2.867C4.19894 1.67757 5.69079 0.815495 7.325 0.362C7.57599 0.855472 7.95864 1.26987 8.43058 1.55931C8.90253 1.84875 9.44537 2.00195 9.999 2.00195C10.5526 2.00195 11.0955 1.84875 11.5674 1.55931C12.0394 1.26987 12.422 0.855472 12.673 0.362C14.3072 0.815495 15.7991 1.67757 17.008 2.867C16.7065 3.33115 16.5393 3.86967 16.5248 4.42296C16.5104 4.97626 16.6493 5.52276 16.9262 6.00201C17.2031 6.48126 17.6071 6.87457 18.0937 7.13841C18.5802 7.40226 19.1303 7.52637 19.683 7.497C19.889 8.297 19.999 9.135 19.999 10C19.999 10.865 19.889 11.703 19.683 12.504C19.1305 12.4748 18.5806 12.5989 18.0942 12.8627C17.6078 13.1265 17.2039 13.5197 16.927 13.9988C16.6502 14.4779 16.5112 15.0242 16.5255 15.5773C16.5398 16.1304 16.7068 16.6689 17.008 17.133C15.7991 18.3224 14.3072 19.1845 12.673 19.638C12.422 19.1445 12.0394 18.7301 11.5674 18.4407C11.0955 18.1512 10.5526 17.998 9.999 17.998C9.44537 17.998 8.90253 18.1512 8.43058 18.4407C7.95864 18.7301 7.57599 19.1445 7.325 19.638C5.69079 19.1845 4.19894 18.3224 2.99 17.133C3.29151 16.6688 3.45873 16.1303 3.47317 15.577C3.48761 15.0237 3.3487 14.4772 3.07181 13.998C2.79492 13.5187 2.39085 13.1254 1.90431 12.8616C1.41776 12.5977 0.867704 12.4736 0.315 12.503C0.11 11.704 0 10.866 0 10ZM4.804 13C5.434 14.091 5.614 15.346 5.368 16.524C5.776 16.814 6.21 17.065 6.665 17.274C7.58167 16.4528 8.76931 15.9991 10 16C11.26 16 12.438 16.471 13.335 17.274C13.79 17.065 14.224 16.814 14.632 16.524C14.3794 15.32 14.5803 14.0651 15.196 13C15.8106 11.9344 16.797 11.1332 17.966 10.75C18.0122 10.2511 18.0122 9.74893 17.966 9.25C16.7966 8.86706 15.8099 8.06582 15.195 7C14.5793 5.93493 14.3784 4.68004 14.631 3.476C14.2231 3.18592 13.7889 2.93482 13.334 2.726C12.4176 3.54693 11.2303 4.00061 10 4C8.76931 4.00085 7.58167 3.54716 6.665 2.726C6.21013 2.93482 5.77589 3.18593 5.368 3.476C5.62056 4.68004 5.41972 5.93493 4.804 7C4.18937 8.06563 3.20298 8.86685 2.034 9.25C1.98775 9.74893 1.98775 10.2511 2.034 10.75C3.20335 11.1329 4.19013 11.9342 4.805 13H4.804ZM10 13C9.20435 13 8.44129 12.6839 7.87868 12.1213C7.31607 11.5587 7 10.7956 7 10C7 9.20435 7.31607 8.44129 7.87868 7.87868C8.44129 7.31607 9.20435 7 10 7C10.7956 7 11.5587 7.31607 12.1213 7.87868C12.6839 8.44129 13 9.20435 13 10C13 10.7956 12.6839 11.5587 12.1213 12.1213C11.5587 12.6839 10.7956 13 10 13ZM10 11C10.2652 11 10.5196 10.8946 10.7071 10.7071C10.8946 10.5196 11 10.2652 11 10C11 9.73478 10.8946 9.48043 10.7071 9.29289C10.5196 9.10536 10.2652 9 10 9C9.73478 9 9.48043 9.10536 9.29289 9.29289C9.10536 9.48043 9 9.73478 9 10C9 10.2652 9.10536 10.5196 9.29289 10.7071C9.48043 10.8946 9.73478 11 10 11Z" fill="currentColor"/>
</symbol><symbol viewBox="0 0 18 18" fill="none" id="share-box" xmlns="http://www.w3.org/2000/svg">
<path d="M7 0V2H2V16H16V11H18V17C18 17.2652 17.8946 17.5196 17.7071 17.7071C17.5196 17.8946 17.2652 18 17 18H1C0.734784 18 0.48043 17.8946 0.292893 17.7071C0.105357 17.5196 0 17.2652 0 17V1C0 0.734784 0.105357 0.48043 0.292893 0.292893C0.48043 0.105357 0.734784 0 1 0H7ZM14.586 2H10V0H18V8H16V3.414L9 10.414L7.586 9L14.586 2Z" fill="currentColor"/>
</symbol><symbol viewBox="0 0 18 18" fill="none" id="skype" xmlns="http://www.w3.org/2000/svg">
<path d="M10.31 17.4C8.98771 17.6066 7.63532 17.498 6.36293 17.083C5.09054 16.6681 3.9341 15.9586 2.98776 15.0123C2.04141 14.0659 1.3319 12.9095 0.91698 11.6371C0.502059 10.3647 0.393454 9.0123 0.600005 7.69C0.0787371 6.69851 -0.11174 5.56629 0.0564141 4.45882C0.224568 3.35135 0.742537 2.32669 1.53461 1.53461C2.32669 0.742537 3.35135 0.224568 4.45882 0.0564141C5.56629 -0.11174 6.69851 0.0787371 7.69 0.600005C9.0123 0.393454 10.3647 0.502059 11.6371 0.91698C12.9095 1.3319 14.0659 2.04141 15.0123 2.98776C15.9586 3.9341 16.6681 5.09054 17.083 6.36293C17.498 7.63532 17.6066 8.98771 17.4 10.31C17.9213 11.3015 18.1117 12.4337 17.9436 13.5412C17.7754 14.6487 17.2575 15.6733 16.4654 16.4654C15.6733 17.2575 14.6487 17.7754 13.5412 17.9436C12.4337 18.1117 11.3015 17.9213 10.31 17.4ZM9.052 14.156H9.012C11.884 14.156 13.315 12.77 13.315 10.913C13.315 9.715 12.764 8.44201 10.589 7.955L8.606 7.51501C7.851 7.34301 6.984 7.115 6.984 6.4C6.984 5.685 7.604 5.18701 8.708 5.18701C10.938 5.18701 10.735 6.715 11.839 6.715C12.415 6.715 12.932 6.373 12.932 5.785C12.932 4.415 10.735 3.38501 8.87601 3.38501C6.85501 3.38501 4.703 4.24401 4.703 6.52901C4.703 7.62701 5.097 8.799 7.263 9.342L9.952 10.013C10.768 10.215 10.97 10.672 10.97 11.085C10.97 11.772 10.286 12.443 9.052 12.443C6.635 12.443 6.97401 10.586 5.67801 10.586C5.09801 10.586 4.675 10.984 4.675 11.557C4.675 12.671 6.027 14.155 9.052 14.155V14.156Z" fill="currentColor"/>
</symbol><symbol viewBox="0 0 18 21" fill="none" id="timer" xmlns="http://www.w3.org/2000/svg">
<path fill-rule="evenodd" clip-rule="evenodd" d="M12 11H10V9C10 8.447 9.552 8 9 8C8.448 8 8 8.447 8 9V12C8 12.553 8.448 13 9 13H12C12.552 13 13 12.553 13 12C13 11.447 12.552 11 12 11M9 18.75C5.278 18.75 2.25 15.722 2.25 12C2.25 8.278 5.278 5.25 9 5.25C12.722 5.25 15.75 8.278 15.75 12C15.75 15.722 12.722 18.75 9 18.75M9.988 3.058C9.99 3.037 10 3.021 10 3V2H11C11.552 2 12 1.553 12 1C12 0.447 11.552 0 11 0H7C6.448 0 6 0.447 6 1C6 1.553 6.448 2 7 2H8V3C8 3.021 8.01 3.037 8.012 3.058C3.513 3.552 0 7.372 0 12C0 16.963 4.038 21 9 21C13.962 21 18 16.963 18 12C18 7.372 14.487 3.552 9.988 3.058" fill="currentColor"/>
</symbol><symbol viewBox="0 0 22 18" fill="none" id="twitter" xmlns="http://www.w3.org/2000/svg">
<path d="M21.162 2.65599C20.3986 2.99368 19.589 3.21546 18.76 3.31399C19.6338 2.79142 20.2877 1.969 20.6 0.999988C19.78 1.48799 18.881 1.82999 17.944 2.01499C17.3146 1.34157 16.4804 0.894951 15.571 0.744572C14.6616 0.594194 13.7279 0.748479 12.9153 1.18344C12.1026 1.6184 11.4564 2.30967 11.0771 3.14978C10.6978 3.98989 10.6068 4.93177 10.818 5.82899C9.15512 5.74564 7.52834 5.31351 6.04329 4.56065C4.55825 3.80779 3.24813 2.75104 2.19801 1.45899C1.8263 2.09744 1.63096 2.82321 1.63201 3.56199C1.63201 5.01199 2.37001 6.29299 3.49201 7.04299C2.82802 7.02208 2.17864 6.84277 1.59801 6.51999V6.57199C1.59821 7.53769 1.93238 8.4736 2.54385 9.22105C3.15533 9.96849 4.00649 10.4815 4.95301 10.673C4.33662 10.84 3.69031 10.8646 3.06301 10.745C3.32987 11.5762 3.85001 12.3032 4.5506 12.8241C5.25118 13.345 6.09714 13.6338 6.97001 13.65C6.10249 14.3313 5.10918 14.835 4.04689 15.1322C2.98459 15.4293 1.87413 15.5142 0.779007 15.382C2.6907 16.6114 4.9161 17.2641 7.18901 17.262C14.882 17.262 19.089 10.889 19.089 5.36199C19.089 5.18199 19.084 4.99999 19.076 4.82199C19.8949 4.23016 20.6016 3.49701 21.163 2.65699L21.162 2.65599Z" fill="currentColor"/>
</symbol></svg>