<svg width="537" height="352" viewBox="0 0 537 352" fill="none" xmlns="http://www.w3.org/2000/svg">
<g clip-path="url(#clip0_124_1436)">
<path d="M141.858 43.7435C144.583 43.7435 146.792 41.5389 146.792 38.8193C146.792 36.0997 144.583 33.895 141.858 33.895C139.134 33.895 136.925 36.0997 136.925 38.8193C136.925 41.5389 139.134 43.7435 141.858 43.7435Z" fill="#F2F2F2"/>
<path d="M122.198 43.7435C124.923 43.7435 127.131 41.5389 127.131 38.8193C127.131 36.0997 124.923 33.895 122.198 33.895C119.474 33.895 117.265 36.0997 117.265 38.8193C117.265 41.5389 119.474 43.7435 122.198 43.7435Z" fill="#F2F2F2"/>
<path d="M102.538 43.7435C105.262 43.7435 107.471 41.5389 107.471 38.8193C107.471 36.0997 105.262 33.895 102.538 33.895C99.8133 33.895 97.6047 36.0997 97.6047 38.8193C97.6047 41.5389 99.8133 43.7435 102.538 43.7435Z" fill="#F2F2F2"/>
<path d="M82.8774 43.7435C85.6018 43.7435 87.8105 41.5389 87.8105 38.8193C87.8105 36.0997 85.6018 33.895 82.8774 33.895C80.1529 33.895 77.9443 36.0997 77.9443 38.8193C77.9443 41.5389 80.1529 43.7435 82.8774 43.7435Z" fill="#F2F2F2"/>
<path d="M141.858 64.3029C144.583 64.3029 146.792 62.0982 146.792 59.3786C146.792 56.659 144.583 54.4543 141.858 54.4543C139.134 54.4543 136.925 56.659 136.925 59.3786C136.925 62.0982 139.134 64.3029 141.858 64.3029Z" fill="#F2F2F2"/>
<path d="M122.198 64.3029C124.923 64.3029 127.131 62.0982 127.131 59.3786C127.131 56.659 124.923 54.4543 122.198 54.4543C119.474 54.4543 117.265 56.659 117.265 59.3786C117.265 62.0982 119.474 64.3029 122.198 64.3029Z" fill="#F2F2F2"/>
<path d="M102.538 64.3029C105.262 64.3029 107.471 62.0982 107.471 59.3786C107.471 56.659 105.262 54.4543 102.538 54.4543C99.8133 54.4543 97.6047 56.659 97.6047 59.3786C97.6047 62.0982 99.8133 64.3029 102.538 64.3029Z" fill="#F2F2F2"/>
<path d="M82.8774 64.3029C85.6018 64.3029 87.8105 62.0982 87.8105 59.3786C87.8105 56.659 85.6018 54.4543 82.8774 54.4543C80.1529 54.4543 77.9443 56.659 77.9443 59.3786C77.9443 62.0982 80.1529 64.3029 82.8774 64.3029Z" fill="#F2F2F2"/>
<path d="M141.858 84.8622C144.583 84.8622 146.792 82.6575 146.792 79.9379C146.792 77.2183 144.583 75.0137 141.858 75.0137C139.134 75.0137 136.925 77.2183 136.925 79.9379C136.925 82.6575 139.134 84.8622 141.858 84.8622Z" fill="#F2F2F2"/>
<path d="M122.198 84.8622C124.923 84.8622 127.131 82.6575 127.131 79.9379C127.131 77.2183 124.923 75.0137 122.198 75.0137C119.474 75.0137 117.265 77.2183 117.265 79.9379C117.265 82.6575 119.474 84.8622 122.198 84.8622Z" fill="#F2F2F2"/>
<path d="M102.538 84.8622C105.262 84.8622 107.471 82.6575 107.471 79.9379C107.471 77.2183 105.262 75.0137 102.538 75.0137C99.8133 75.0137 97.6047 77.2183 97.6047 79.9379C97.6047 82.6575 99.8133 84.8622 102.538 84.8622Z" fill="#F2F2F2"/>
<path d="M82.8774 84.8622C85.6018 84.8622 87.8105 82.6575 87.8105 79.9379C87.8105 77.2183 85.6018 75.0137 82.8774 75.0137C80.1529 75.0137 77.9443 77.2183 77.9443 79.9379C77.9443 82.6575 80.1529 84.8622 82.8774 84.8622Z" fill="#F2F2F2"/>
<path d="M141.858 105.422C144.583 105.422 146.792 103.217 146.792 100.497C146.792 97.7777 144.583 95.573 141.858 95.573C139.134 95.573 136.925 97.7777 136.925 100.497C136.925 103.217 139.134 105.422 141.858 105.422Z" fill="#F2F2F2"/>
<path d="M122.198 105.422C124.923 105.422 127.131 103.217 127.131 100.497C127.131 97.7777 124.923 95.573 122.198 95.573C119.474 95.573 117.265 97.7777 117.265 100.497C117.265 103.217 119.474 105.422 122.198 105.422Z" fill="#F2F2F2"/>
<path d="M102.538 105.422C105.262 105.422 107.471 103.217 107.471 100.497C107.471 97.7777 105.262 95.573 102.538 95.573C99.8133 95.573 97.6047 97.7777 97.6047 100.497C97.6047 103.217 99.8133 105.422 102.538 105.422Z" fill="#F2F2F2"/>
<path d="M82.8774 105.422C85.6018 105.422 87.8105 103.217 87.8105 100.497C87.8105 97.7777 85.6018 95.573 82.8774 95.573C80.1529 95.573 77.9443 97.7777 77.9443 100.497C77.9443 103.217 80.1529 105.422 82.8774 105.422Z" fill="#F2F2F2"/>
<path d="M141.858 125.981C144.583 125.981 146.792 123.776 146.792 121.057C146.792 118.337 144.583 116.132 141.858 116.132C139.134 116.132 136.925 118.337 136.925 121.057C136.925 123.776 139.134 125.981 141.858 125.981Z" fill="#F2F2F2"/>
<path d="M122.198 125.981C124.923 125.981 127.131 123.776 127.131 121.057C127.131 118.337 124.923 116.132 122.198 116.132C119.474 116.132 117.265 118.337 117.265 121.057C117.265 123.776 119.474 125.981 122.198 125.981Z" fill="#F2F2F2"/>
<path d="M102.538 125.981C105.262 125.981 107.471 123.776 107.471 121.057C107.471 118.337 105.262 116.132 102.538 116.132C99.8133 116.132 97.6047 118.337 97.6047 121.057C97.6047 123.776 99.8133 125.981 102.538 125.981Z" fill="#F2F2F2"/>
<path d="M82.8774 125.981C85.6018 125.981 87.8105 123.776 87.8105 121.057C87.8105 118.337 85.6018 116.132 82.8774 116.132C80.1529 116.132 77.9443 118.337 77.9443 121.057C77.9443 123.776 80.1529 125.981 82.8774 125.981Z" fill="#F2F2F2"/>
<path d="M141.858 146.54C144.583 146.54 146.792 144.336 146.792 141.616C146.792 138.896 144.583 136.692 141.858 136.692C139.134 136.692 136.925 138.896 136.925 141.616C136.925 144.336 139.134 146.54 141.858 146.54Z" fill="#F2F2F2"/>
<path d="M122.198 146.54C124.923 146.54 127.131 144.336 127.131 141.616C127.131 138.896 124.923 136.692 122.198 136.692C119.474 136.692 117.265 138.896 117.265 141.616C117.265 144.336 119.474 146.54 122.198 146.54Z" fill="#F2F2F2"/>
<path d="M102.538 146.54C105.262 146.54 107.471 144.336 107.471 141.616C107.471 138.896 105.262 136.692 102.538 136.692C99.8133 136.692 97.6047 138.896 97.6047 141.616C97.6047 144.336 99.8133 146.54 102.538 146.54Z" fill="#F2F2F2"/>
<path d="M82.8774 146.54C85.6018 146.54 87.8105 144.336 87.8105 141.616C87.8105 138.896 85.6018 136.692 82.8774 136.692C80.1529 136.692 77.9443 138.896 77.9443 141.616C77.9443 144.336 80.1529 146.54 82.8774 146.54Z" fill="#F2F2F2"/>
<path d="M98.5112 275.952V277.475C98.5134 279.998 99.5188 282.418 101.306 284.203C103.094 285.987 105.518 286.991 108.046 286.993H176.7C179.229 286.992 181.653 285.989 183.441 284.204C185.229 282.419 186.234 279.999 186.235 277.475V275.952C186.24 273.724 185.456 271.567 184.023 269.86C183.546 269.293 183.006 268.783 182.413 268.337C182.413 268.337 144.669 267.484 144.669 266.434H108.046C105.519 266.437 103.095 267.441 101.308 269.225C99.5205 271.01 98.5147 273.429 98.5112 275.952V275.952Z" fill="#CCCCCC"/>
<path d="M147.884 286.615H137.967V350.577H147.884V286.615Z" fill="#CCCCCC"/>
<path d="M176.108 350.23C176.108 351.299 161.081 350.643 142.544 350.643C124.007 350.643 108.98 351.299 108.98 350.23C108.98 349.16 124.007 340.678 142.544 340.678C161.081 340.678 176.108 349.16 176.108 350.23Z" fill="#CCCCCC"/>
<path d="M162.474 274.66C163.19 273.701 163.686 272.597 163.929 271.426C164.171 270.255 164.153 269.045 163.876 267.882C163.599 266.718 163.07 265.629 162.326 264.692C161.582 263.755 160.641 262.992 159.57 262.457L138.552 190.967L122.547 198.792L148.24 266.603C147.459 268.459 147.387 270.537 148.038 272.443C148.688 274.348 150.017 275.95 151.772 276.943C153.526 277.936 155.585 278.252 157.557 277.831C159.53 277.411 161.279 276.282 162.474 274.66L162.474 274.66Z" fill="#A0616A"/>
<path d="M143.314 202.906L125.401 207.746C124.891 207.884 124.358 207.91 123.837 207.824C123.316 207.737 122.82 207.539 122.382 207.244C121.945 206.949 121.576 206.563 121.302 206.113C121.027 205.663 120.853 205.159 120.791 204.635L118.626 186.294C117.935 183.687 118.308 180.913 119.663 178.58C121.018 176.247 123.244 174.545 125.854 173.848C128.463 173.151 131.244 173.516 133.584 174.861C135.925 176.207 137.636 178.425 138.342 181.028L145.721 197.899C145.932 198.382 146.037 198.905 146.027 199.432C146.018 199.959 145.894 200.477 145.666 200.953C145.437 201.428 145.109 201.848 144.703 202.185C144.297 202.522 143.823 202.768 143.314 202.906H143.314Z" fill="#FF5300"/>
<path d="M167.156 342.733L176.508 342.732L180.957 318.521H167.154L167.156 342.733Z" fill="#A0616A"/>
<path d="M164.77 339.685L183.187 339.684H183.188C184.729 339.684 186.256 339.987 187.68 340.576C189.104 341.164 190.398 342.027 191.488 343.115C192.577 344.203 193.442 345.495 194.032 346.916C194.622 348.338 194.925 349.861 194.925 351.4V351.781L164.771 351.782L164.77 339.685Z" fill="#2F2E41"/>
<path d="M178.011 329.749C177.902 329.749 177.792 329.744 177.683 329.733L164.74 328.793C164.217 328.744 163.712 328.576 163.263 328.302C162.815 328.028 162.436 327.655 162.155 327.211C161.875 326.768 161.7 326.266 161.644 325.744C161.588 325.222 161.654 324.694 161.834 324.202L179.155 285.356C179.279 285.01 179.33 284.642 179.304 284.275C179.278 283.908 179.177 283.551 179.006 283.225C178.835 282.896 178.597 282.606 178.306 282.375C178.015 282.144 177.679 281.977 177.319 281.885C169.174 279.76 148.277 274.101 130.187 267.48C122.437 264.643 117.556 260.543 115.679 255.295C113.205 248.376 116.865 242.066 117.022 241.801L117.145 241.593L134.167 243.138L152.62 244.705L193.06 266.351C196.449 268.18 199.023 271.216 200.269 274.855C201.516 278.493 201.344 282.467 199.787 285.985L181.143 327.718C180.873 328.323 180.434 328.836 179.878 329.197C179.322 329.557 178.674 329.749 178.011 329.749V329.749Z" fill="#2F2E41"/>
<path d="M137.127 166.285C147.474 166.285 155.862 157.911 155.862 147.582C155.862 137.254 147.474 128.88 137.127 128.88C126.779 128.88 118.391 137.254 118.391 147.582C118.391 157.911 126.779 166.285 137.127 166.285Z" fill="#A0616A"/>
<path d="M161.816 341.971L171.168 341.97L175.618 317.759H161.814L161.816 341.971Z" fill="#A0616A"/>
<path d="M159.43 338.923L177.848 338.922H177.848C179.39 338.922 180.916 339.225 182.34 339.814C183.764 340.403 185.058 341.266 186.148 342.354C187.238 343.442 188.102 344.733 188.692 346.155C189.282 347.576 189.585 349.1 189.585 350.638V351.019L159.431 351.02L159.43 338.923Z" fill="#2F2E41"/>
<path d="M172.671 332.034C172.562 332.034 172.453 332.028 172.343 332.018L159.401 331.077C158.877 331.029 158.372 330.861 157.924 330.587C157.476 330.312 157.096 329.939 156.816 329.496C156.535 329.052 156.36 328.55 156.304 328.028C156.249 327.506 156.314 326.979 156.495 326.486L173.816 287.641C173.939 287.294 173.99 286.926 173.964 286.559C173.938 286.193 173.837 285.835 173.666 285.51C173.495 285.18 173.257 284.89 172.966 284.659C172.676 284.428 172.339 284.261 171.979 284.17C163.834 282.044 142.937 276.385 124.847 269.764C117.097 266.927 112.216 262.828 110.34 257.579C107.866 250.66 111.526 244.35 111.683 244.085L111.805 243.878L128.827 245.422L147.281 246.989L187.72 268.635C191.109 270.465 193.683 273.501 194.929 277.139C196.176 280.778 196.004 284.752 194.447 288.269L175.803 330.003C175.534 330.607 175.094 331.121 174.538 331.481C173.983 331.841 173.334 332.033 172.671 332.034V332.034Z" fill="#2F2E41"/>
<path d="M142.905 176.89L123.072 170.036C123.072 170.036 110.621 179.585 116.602 203.273C119.725 215.497 118.815 228.4 114.009 240.067C113.43 241.51 112.763 242.917 112.011 244.278C112.011 244.278 134.133 270.929 154.729 251.132L146.719 212.678C146.719 212.678 159.306 187.169 142.905 176.89Z" fill="#2F2E41"/>
<path d="M139.453 166.921C136.786 162.937 134.682 157.412 137.618 153.621C140.516 149.879 146.232 150.431 150.67 148.775C156.852 146.469 160.437 139.219 159.319 132.727C158.201 126.234 152.98 120.852 146.76 118.65C140.54 116.448 133.526 117.164 127.435 119.7C119.937 122.822 113.505 128.86 110.808 136.51C108.111 144.16 109.553 153.344 115.148 159.224C121.147 165.528 130.561 167.207 139.271 167.106" fill="#2F2E41"/>
<path d="M122.025 132.935C118.665 135.665 113.538 134.453 109.931 132.056C106.325 129.66 103.398 126.248 99.4954 124.369C92.6153 121.057 84.2971 123.258 77.6012 126.927C70.9052 130.596 64.9696 135.665 57.8966 138.544C50.8237 141.424 41.7982 141.566 36.4425 136.129C35.1245 139.941 35.0168 144.066 36.134 147.941C37.2512 151.816 39.5389 155.253 42.685 157.782C45.8311 160.311 49.6823 161.81 53.7133 162.074C57.7442 162.338 61.7585 161.354 65.2085 159.256C72.9582 154.544 77.2389 144.664 85.9311 142.063C90.7411 140.623 95.906 141.783 100.767 143.038C105.629 144.294 110.698 145.65 115.603 144.581C120.509 143.513 125.098 139.112 124.474 134.138L122.025 132.935Z" fill="#2F2E41"/>
<path d="M183.015 309.157C181.031 296.294 181.031 283.204 183.015 270.341C183.141 269.576 183.535 268.879 184.127 268.377C184.718 267.874 185.47 267.597 186.247 267.595H216.663C217.155 267.594 217.642 267.705 218.086 267.919C218.529 268.134 218.918 268.447 219.222 268.834C219.533 269.226 219.75 269.684 219.857 270.173C219.963 270.662 219.957 271.169 219.838 271.655C216.993 283.55 216.993 295.947 219.838 307.843C219.957 308.329 219.963 308.836 219.857 309.324C219.75 309.813 219.533 310.271 219.222 310.664C218.918 311.051 218.529 311.364 218.086 311.578C217.642 311.793 217.155 311.904 216.663 311.902H186.247C185.47 311.901 184.718 311.624 184.127 311.121C183.535 310.618 183.141 309.922 183.015 309.157V309.157Z" fill="#FF5300"/>
<path d="M207.303 286.386H191.342C190.735 286.385 190.153 286.144 189.724 285.716C189.295 285.287 189.054 284.707 189.053 284.101V283.209C189.054 282.603 189.295 282.023 189.724 281.594C190.153 281.166 190.735 280.925 191.342 280.924H207.303C207.91 280.925 208.491 281.166 208.92 281.594C209.349 282.023 209.591 282.603 209.591 283.209V284.101C209.591 284.707 209.349 285.287 208.92 285.716C208.491 286.144 207.91 286.385 207.303 286.386Z" fill="white"/>
<path d="M207.303 295.786H191.342C190.735 295.785 190.153 295.544 189.724 295.116C189.295 294.687 189.054 294.107 189.053 293.501V292.608C189.054 292.003 189.295 291.422 189.724 290.994C190.153 290.566 190.735 290.325 191.342 290.324H207.303C207.91 290.325 208.491 290.566 208.92 290.994C209.349 291.422 209.591 292.003 209.591 292.608V293.501C209.591 294.107 209.349 294.687 208.92 295.116C208.491 295.544 207.91 295.785 207.303 295.786Z" fill="white"/>
<path d="M191.013 271.234C191.466 270.127 191.671 268.934 191.612 267.74C191.554 266.545 191.234 265.378 190.674 264.321C190.115 263.263 189.33 262.341 188.375 261.619C187.42 260.897 186.318 260.393 185.147 260.142L146.903 196.161L133.364 207.729L175.214 266.982C174.922 268.975 175.372 271.005 176.48 272.687C177.587 274.37 179.274 275.589 181.222 276.113C183.169 276.637 185.242 276.43 187.046 275.531C188.851 274.632 190.262 273.103 191.013 271.234L191.013 271.234Z" fill="#A0616A"/>
<path d="M154.501 206.534L138.368 215.688C137.909 215.949 137.399 216.107 136.873 216.153C136.347 216.199 135.817 216.132 135.32 215.955C134.822 215.778 134.369 215.496 133.99 215.129C133.612 214.761 133.317 214.317 133.126 213.825L126.439 196.605C125.118 194.253 124.785 191.474 125.513 188.878C126.241 186.281 127.97 184.078 130.323 182.752C132.675 181.427 135.458 181.086 138.062 181.805C140.665 182.525 142.877 184.245 144.211 186.59L155.579 201.085C155.905 201.5 156.137 201.98 156.259 202.493C156.382 203.006 156.393 203.539 156.29 204.056C156.188 204.573 155.975 205.062 155.666 205.49C155.358 205.917 154.96 206.273 154.501 206.534V206.534Z" fill="#2F2E41"/>
<path d="M326.166 229.008H16.462C15.147 229.008 13.8858 229.529 12.9559 230.457C12.0261 231.386 11.5037 232.645 11.5037 233.957C11.5037 235.27 12.0261 236.529 12.9559 237.457C13.8858 238.385 15.147 238.907 16.462 238.907H25.2344V346.653C25.2344 347.966 25.7568 349.225 26.6866 350.153C27.6165 351.081 28.8777 351.602 30.1927 351.602C31.5077 351.602 32.7689 351.081 33.6988 350.153C34.6286 349.225 35.151 347.966 35.151 346.653V248.417L90.7384 348.989C91.3974 350.123 92.4801 350.95 93.749 351.288C95.0179 351.626 96.3693 351.448 97.5066 350.792C98.644 350.137 99.4744 349.057 99.8155 347.792C100.157 346.526 99.9808 345.176 99.3265 344.04L41.2182 238.907H306.714V238.971L248.642 344.04C247.984 345.176 247.806 346.527 248.146 347.795C248.487 349.063 249.318 350.144 250.456 350.8C251.595 351.457 252.949 351.635 254.219 351.295C255.489 350.955 256.572 350.126 257.229 348.989L306.714 259.458V346.653C306.714 347.966 307.237 349.225 308.167 350.153C309.096 351.081 310.358 351.602 311.673 351.602C312.988 351.602 314.249 351.081 315.179 350.153C316.108 349.225 316.631 347.966 316.631 346.653V241.517L318.073 238.907H326.166C327.481 238.907 328.742 238.385 329.672 237.457C330.602 236.529 331.124 235.27 331.124 233.957C331.124 232.645 330.602 231.386 329.672 230.457C328.742 229.529 327.481 229.008 326.166 229.008V229.008Z" fill="#3F3D56"/>
<path d="M198.013 225.962H137.75C136.275 225.962 135.08 227.155 135.08 228.627C135.08 230.099 136.275 231.292 137.75 231.292H198.013C199.487 231.292 200.682 230.099 200.682 228.627C200.682 227.155 199.487 225.962 198.013 225.962Z" fill="#CCCCCC"/>
<path d="M238.442 231.292H170.551C169.237 231.291 167.976 230.769 167.047 229.841C166.117 228.913 165.594 227.655 165.593 226.343V189.031C165.594 187.719 166.117 186.461 167.047 185.533C167.976 184.605 169.237 184.083 170.551 184.082H238.442C239.756 184.083 241.017 184.605 241.946 185.533C242.876 186.461 243.399 187.719 243.4 189.031V226.343C243.399 227.655 242.876 228.913 241.946 229.841C241.017 230.769 239.756 231.291 238.442 231.292V231.292Z" fill="#CCCCCC"/>
<path d="M204.496 212.256C207.024 212.256 209.073 210.21 209.073 207.687C209.073 205.164 207.024 203.118 204.496 203.118C201.969 203.118 199.92 205.164 199.92 207.687C199.92 210.21 201.969 212.256 204.496 212.256Z" fill="white"/>
<path d="M290.253 139.363V5.72724C290.255 4.20881 290.86 2.75307 291.935 1.67937C293.011 0.605681 294.469 0.00172717 295.991 0H401.815C403.336 0.00172717 404.795 0.605681 405.87 1.67937C406.946 2.75307 407.551 4.20881 407.553 5.72724V139.363C407.551 140.881 406.946 142.337 405.87 143.411C404.795 144.485 403.336 145.088 401.815 145.09H295.991C294.469 145.088 293.011 144.485 291.935 143.411C290.86 142.337 290.255 140.881 290.253 139.363V139.363ZM295.991 1.27272C294.807 1.27405 293.673 1.74379 292.837 2.57889C292 3.41398 291.529 4.54623 291.528 5.72724V139.363C291.529 140.544 292 141.676 292.837 142.511C293.673 143.346 294.807 143.816 295.991 143.817H401.815C402.998 143.816 404.133 143.346 404.969 142.511C405.806 141.676 406.276 140.544 406.278 139.363V5.72724C406.276 4.54623 405.806 3.41398 404.969 2.57889C404.133 1.74379 402.998 1.27405 401.815 1.27272H295.991Z" fill="#E6E6E6"/>
<path d="M354.837 61.3717V33.932C354.838 33.1728 355.14 32.4449 355.678 31.9081C356.216 31.3712 356.945 31.0693 357.706 31.0684H381C381.761 31.0693 382.49 31.3712 383.028 31.9081C383.565 32.4449 383.868 33.1728 383.869 33.932V61.3717C383.868 62.1309 383.565 62.8588 383.028 63.3956C382.49 63.9325 381.761 64.2344 381 64.2353H357.706C356.945 64.2344 356.216 63.9325 355.678 63.3956C355.14 62.8588 354.838 62.1309 354.837 61.3717V61.3717Z" fill="#FF5300"/>
<path d="M309.575 74.0989V46.6593C309.576 45.9001 309.878 45.1722 310.416 44.6353C310.954 44.0985 311.683 43.7965 312.443 43.7957H335.738C336.498 43.7965 337.227 44.0985 337.765 44.6353C338.303 45.1722 338.606 45.9001 338.606 46.6593V74.0989C338.606 74.8581 338.303 75.586 337.765 76.1229C337.227 76.6597 336.498 76.9617 335.738 76.9625H312.443C311.683 76.9617 310.954 76.6597 310.416 76.1229C309.878 75.586 309.576 74.8581 309.575 74.0989V74.0989Z" fill="#CCCCCC"/>
<path d="M345.912 112.917V85.4772C345.913 84.718 346.216 83.9901 346.753 83.4533C347.291 82.9164 348.02 82.6144 348.781 82.6136H372.075C372.836 82.6144 373.565 82.9164 374.103 83.4533C374.641 83.9901 374.943 84.718 374.944 85.4772V112.917C374.943 113.676 374.641 114.404 374.103 114.941C373.565 115.478 372.836 115.78 372.075 115.78H348.781C348.02 115.78 347.291 115.478 346.753 114.941C346.216 114.404 345.913 113.676 345.912 112.917Z" fill="#FF6584"/>
<path d="M523.563 13.9249C526.288 13.9249 528.496 11.7202 528.496 9.00061C528.496 6.28102 526.288 4.07635 523.563 4.07635C520.839 4.07635 518.63 6.28102 518.63 9.00061C518.63 11.7202 520.839 13.9249 523.563 13.9249Z" fill="#F2F2F2"/>
<path d="M523.563 33.5502C526.288 33.5502 528.496 31.3455 528.496 28.6259C528.496 25.9063 526.288 23.7017 523.563 23.7017C520.839 23.7017 518.63 25.9063 518.63 28.6259C518.63 31.3455 520.839 33.5502 523.563 33.5502Z" fill="#F2F2F2"/>
<path d="M523.563 53.1754C526.288 53.1754 528.496 50.9708 528.496 48.2512C528.496 45.5316 526.288 43.3269 523.563 43.3269C520.839 43.3269 518.63 45.5316 518.63 48.2512C518.63 50.9708 520.839 53.1754 523.563 53.1754Z" fill="#F2F2F2"/>
<path d="M523.563 72.8007C526.288 72.8007 528.496 70.596 528.496 67.8764C528.496 65.1568 526.288 62.9521 523.563 62.9521C520.839 62.9521 518.63 65.1568 518.63 67.8764C518.63 70.596 520.839 72.8007 523.563 72.8007Z" fill="#F2F2F2"/>
<path d="M502.967 13.9249C505.692 13.9249 507.9 11.7202 507.9 9.00061C507.9 6.28102 505.692 4.07635 502.967 4.07635C500.243 4.07635 498.034 6.28102 498.034 9.00061C498.034 11.7202 500.243 13.9249 502.967 13.9249Z" fill="#F2F2F2"/>
<path d="M502.967 33.5502C505.692 33.5502 507.9 31.3455 507.9 28.6259C507.9 25.9063 505.692 23.7017 502.967 23.7017C500.243 23.7017 498.034 25.9063 498.034 28.6259C498.034 31.3455 500.243 33.5502 502.967 33.5502Z" fill="#F2F2F2"/>
<path d="M502.967 53.1754C505.692 53.1754 507.9 50.9708 507.9 48.2512C507.9 45.5316 505.692 43.3269 502.967 43.3269C500.243 43.3269 498.034 45.5316 498.034 48.2512C498.034 50.9708 500.243 53.1754 502.967 53.1754Z" fill="#F2F2F2"/>
<path d="M502.967 72.8007C505.692 72.8007 507.9 70.596 507.9 67.8764C507.9 65.1568 505.692 62.9521 502.967 62.9521C500.243 62.9521 498.034 65.1568 498.034 67.8764C498.034 70.596 500.243 72.8007 502.967 72.8007Z" fill="#F2F2F2"/>
<path d="M482.371 13.9249C485.096 13.9249 487.304 11.7202 487.304 9.00061C487.304 6.28102 485.096 4.07635 482.371 4.07635C479.647 4.07635 477.438 6.28102 477.438 9.00061C477.438 11.7202 479.647 13.9249 482.371 13.9249Z" fill="#F2F2F2"/>
<path d="M482.371 33.5502C485.096 33.5502 487.304 31.3455 487.304 28.6259C487.304 25.9063 485.096 23.7017 482.371 23.7017C479.647 23.7017 477.438 25.9063 477.438 28.6259C477.438 31.3455 479.647 33.5502 482.371 33.5502Z" fill="#F2F2F2"/>
<path d="M482.371 53.1754C485.096 53.1754 487.304 50.9708 487.304 48.2512C487.304 45.5316 485.096 43.3269 482.371 43.3269C479.647 43.3269 477.438 45.5316 477.438 48.2512C477.438 50.9708 479.647 53.1754 482.371 53.1754Z" fill="#F2F2F2"/>
<path d="M482.371 72.8007C485.096 72.8007 487.304 70.596 487.304 67.8764C487.304 65.1568 485.096 62.9521 482.371 62.9521C479.647 62.9521 477.438 65.1568 477.438 67.8764C477.438 70.596 479.647 72.8007 482.371 72.8007Z" fill="#F2F2F2"/>
<path d="M461.775 13.9249C464.5 13.9249 466.708 11.7202 466.708 9.00061C466.708 6.28102 464.5 4.07635 461.775 4.07635C459.051 4.07635 456.842 6.28102 456.842 9.00061C456.842 11.7202 459.051 13.9249 461.775 13.9249Z" fill="#F2F2F2"/>
<path d="M461.775 33.5502C464.5 33.5502 466.708 31.3455 466.708 28.6259C466.708 25.9063 464.5 23.7017 461.775 23.7017C459.051 23.7017 456.842 25.9063 456.842 28.6259C456.842 31.3455 459.051 33.5502 461.775 33.5502Z" fill="#F2F2F2"/>
<path d="M461.775 53.1754C464.5 53.1754 466.708 50.9708 466.708 48.2512C466.708 45.5316 464.5 43.3269 461.775 43.3269C459.051 43.3269 456.842 45.5316 456.842 48.2512C456.842 50.9708 459.051 53.1754 461.775 53.1754Z" fill="#F2F2F2"/>
<path d="M461.775 72.8007C464.5 72.8007 466.708 70.596 466.708 67.8764C466.708 65.1568 464.5 62.9521 461.775 62.9521C459.051 62.9521 456.842 65.1568 456.842 67.8764C456.842 70.596 459.051 72.8007 461.775 72.8007Z" fill="#F2F2F2"/>
<path d="M441.179 13.9249C443.904 13.9249 446.112 11.7202 446.112 9.00061C446.112 6.28102 443.904 4.07635 441.179 4.07635C438.455 4.07635 436.246 6.28102 436.246 9.00061C436.246 11.7202 438.455 13.9249 441.179 13.9249Z" fill="#F2F2F2"/>
<path d="M441.179 33.5502C443.904 33.5502 446.112 31.3455 446.112 28.6259C446.112 25.9063 443.904 23.7017 441.179 23.7017C438.455 23.7017 436.246 25.9063 436.246 28.6259C436.246 31.3455 438.455 33.5502 441.179 33.5502Z" fill="#F2F2F2"/>
<path d="M441.179 53.1754C443.904 53.1754 446.112 50.9708 446.112 48.2512C446.112 45.5316 443.904 43.3269 441.179 43.3269C438.455 43.3269 436.246 45.5316 436.246 48.2512C436.246 50.9708 438.455 53.1754 441.179 53.1754Z" fill="#F2F2F2"/>
<path d="M441.179 72.8007C443.904 72.8007 446.112 70.596 446.112 67.8764C446.112 65.1568 443.904 62.9521 441.179 62.9521C438.455 62.9521 436.246 65.1568 436.246 67.8764C436.246 70.596 438.455 72.8007 441.179 72.8007Z" fill="#F2F2F2"/>
<path d="M420.583 13.9249C423.307 13.9249 425.516 11.7202 425.516 9.00061C425.516 6.28102 423.307 4.07635 420.583 4.07635C417.858 4.07635 415.65 6.28102 415.65 9.00061C415.65 11.7202 417.858 13.9249 420.583 13.9249Z" fill="#F2F2F2"/>
<path d="M420.583 33.5502C423.307 33.5502 425.516 31.3455 425.516 28.6259C425.516 25.9063 423.307 23.7017 420.583 23.7017C417.858 23.7017 415.65 25.9063 415.65 28.6259C415.65 31.3455 417.858 33.5502 420.583 33.5502Z" fill="#F2F2F2"/>
<path d="M420.583 53.1754C423.307 53.1754 425.516 50.9708 425.516 48.2512C425.516 45.5316 423.307 43.3269 420.583 43.3269C417.858 43.3269 415.65 45.5316 415.65 48.2512C415.65 50.9708 417.858 53.1754 420.583 53.1754Z" fill="#F2F2F2"/>
<path d="M420.583 72.8007C423.307 72.8007 425.516 70.596 425.516 67.8764C425.516 65.1568 423.307 62.9521 420.583 62.9521C417.858 62.9521 415.65 65.1568 415.65 67.8764C415.65 70.596 417.858 72.8007 420.583 72.8007Z" fill="#F2F2F2"/>
<path d="M440.457 183.703C440.052 182.594 439.887 181.412 439.972 180.235C440.057 179.058 440.39 177.912 440.949 176.872C441.509 175.832 442.282 174.922 443.218 174.201C444.154 173.481 445.233 172.965 446.382 172.69C446.747 172.604 447.117 172.544 447.489 172.51L466.028 140.073L461.347 132.045L472.999 123.072L481.914 135.431C482.977 136.917 483.532 138.706 483.496 140.531C483.461 142.357 482.836 144.122 481.716 145.565L456.264 178.09C456.357 178.349 456.436 178.612 456.501 178.878C456.777 180.026 456.807 181.219 456.589 182.379C456.371 183.539 455.91 184.64 455.236 185.61C454.562 186.58 453.69 187.397 452.678 188.007C451.665 188.617 450.535 189.006 449.361 189.15C449.021 189.193 448.678 189.214 448.334 189.214C446.614 189.209 444.938 188.678 443.53 187.692C442.121 186.707 441.049 185.315 440.457 183.703V183.703Z" fill="#FFB8B8"/>
<path d="M404.288 343.332L394.936 343.331L390.487 307.323L404.29 307.324L404.288 343.332Z" fill="#FFB8B8"/>
<path d="M388.256 340.664H406.292V351.999H376.9C376.9 350.511 377.194 349.037 377.765 347.661C378.335 346.286 379.172 345.036 380.226 343.984C381.281 342.931 382.533 342.096 383.91 341.527C385.288 340.957 386.765 340.664 388.256 340.664V340.664Z" fill="#2F2E41"/>
<path d="M481.333 343.332L471.981 343.331L467.532 307.323L481.334 307.324L481.333 343.332Z" fill="#FFB8B8"/>
<path d="M465.301 340.664H483.337V351.999H453.945C453.945 350.511 454.239 349.037 454.809 347.661C455.38 346.286 456.216 345.036 457.271 343.984C458.325 342.931 459.577 342.096 460.955 341.527C462.333 340.957 463.81 340.664 465.301 340.664V340.664Z" fill="#2F2E41"/>
<path d="M475.593 124.825L454.597 132.789L449.47 118.575C448.79 116.688 448.799 114.621 449.498 112.74C450.196 110.859 451.538 109.285 453.286 108.296V108.296C455.055 107.296 457.123 106.96 459.119 107.348C461.114 107.737 462.904 108.825 464.166 110.416L475.593 124.825Z" fill="#FF5300"/>
<path d="M405.096 314.168L387.486 310.159C386.55 309.944 385.73 309.384 385.19 308.59C384.651 307.796 384.432 306.828 384.579 305.88C391.644 261.176 398.442 234.996 415.961 201.749C416.206 201.129 418.941 188.547 420.726 180.211C420.706 179.293 421.021 178.398 421.612 177.695C422.204 176.991 423.031 176.526 423.941 176.386L456.776 171.342C457.271 171.17 457.794 171.092 458.318 171.11L458.646 171.172L458.642 171.494C458.638 171.828 458.306 171.878 458.181 171.898L457.744 171.965C458.242 172.196 458.699 172.506 459.098 172.883C473.485 190.156 480.966 246.775 490.468 309.325C490.52 309.833 490.458 310.346 490.286 310.826C490.114 311.307 489.836 311.743 489.473 312.102C489.129 312.477 488.713 312.778 488.249 312.988C487.785 313.197 487.283 313.311 486.774 313.321L465.796 313.831C464.874 313.852 463.977 313.538 463.27 312.947C462.564 312.356 462.096 311.529 461.955 310.619L447.825 229.106C447.727 228.47 447.429 227.88 446.973 227.425C446.517 226.969 445.927 226.67 445.29 226.572C444.652 226.474 443.999 226.581 443.427 226.879C442.855 227.176 442.393 227.648 442.108 228.226C430.708 251.401 420.077 271.443 409.607 311.428C409.399 312.238 408.927 312.957 408.265 313.471C407.603 313.985 406.789 314.264 405.951 314.265C405.663 314.265 405.376 314.232 405.096 314.168V314.168Z" fill="#2F2E41"/>
<path d="M422.188 181.142C421.746 180.83 421.376 180.428 421.102 179.962C420.828 179.496 420.657 178.977 420.599 178.44C417.91 153.381 419.783 133.77 426.325 118.487C427.477 115.851 429.213 113.51 431.401 111.64C433.59 109.77 436.175 108.419 438.962 107.69L455.934 106.834L456.022 106.877C459.852 108.749 462.976 111.804 464.929 115.588C466.883 119.372 467.563 123.684 466.869 127.884C461.41 142.248 456.839 157.203 460.325 169.267C460.471 169.771 460.514 170.299 460.45 170.821C460.387 171.342 460.219 171.845 459.956 172.3C459.701 172.739 459.359 173.122 458.95 173.424C458.541 173.727 458.075 173.942 457.579 174.058L425.252 181.734C424.729 181.859 424.185 181.87 423.656 181.768C423.128 181.666 422.628 181.453 422.188 181.142V181.142Z" fill="#FF5300"/>
<path d="M414.882 145.181L382.329 119.545C382.07 119.636 381.806 119.714 381.539 119.778C380.39 120.046 379.197 120.07 378.039 119.848C376.88 119.627 375.781 119.164 374.813 118.49C373.838 117.816 373.019 116.942 372.411 115.926C371.802 114.911 371.418 113.777 371.283 112.602C371.065 110.722 371.49 108.824 372.488 107.215C373.486 105.606 375 104.382 376.783 103.74C377.896 103.341 379.08 103.182 380.259 103.272C381.438 103.363 382.585 103.7 383.624 104.264C384.663 104.827 385.571 105.604 386.288 106.542C387.006 107.48 387.517 108.559 387.787 109.707C387.871 110.071 387.929 110.441 387.962 110.813L420.368 129.474L428.432 124.84L437.365 136.515L424.844 145.423C423.378 146.457 421.618 146.992 419.823 146.949C418.028 146.905 416.296 146.285 414.882 145.181H414.882Z" fill="#FFB8B8"/>
<path d="M441.337 140.15L422.764 127.542L431.493 115.202C432.652 113.563 434.354 112.386 436.298 111.879C438.242 111.372 440.304 111.567 442.118 112.43V112.43C443.953 113.303 445.415 114.802 446.239 116.657C447.064 118.512 447.197 120.6 446.614 122.544L441.337 140.15Z" fill="#FF5300"/>
<path d="M450.27 100.507C460.617 100.507 469.006 92.1333 469.006 81.8044C469.006 71.4755 460.617 63.1022 450.27 63.1022C439.923 63.1022 431.535 71.4755 431.535 81.8044C431.535 92.1333 439.923 100.507 450.27 100.507Z" fill="#FFB8B8"/>
<path d="M443.401 79.0189C438.586 82.3087 432.263 85.6905 427.345 82.1871C424.115 79.8866 423.098 75.6268 424.407 71.8885C426.762 65.1659 433.233 62.2063 439.42 59.9377C447.463 56.9886 456.222 54.6424 464.525 56.7544C472.829 58.8665 480.167 66.8916 478.668 75.3134C477.463 82.0859 471.063 87.7212 471.972 94.5398C472.886 101.402 480.617 105.014 487.443 106.241C494.268 107.467 501.906 107.861 506.811 112.755C513.069 118.998 511.506 130.157 505.618 136.748C499.73 143.34 490.845 146.328 482.235 148.359C470.827 151.05 458.489 152.464 447.655 147.998C436.82 143.532 428.389 131.509 431.528 120.235C432.853 115.473 435.976 111.449 438.995 107.531C442.013 103.613 445.069 99.5158 446.22 94.7088C447.18 90.703 446.47 86.0521 443.808 83.0472C443.324 82.5213 443.02 81.8558 442.938 81.1462C442.857 80.4367 443.003 79.7196 443.355 79.098L443.401 79.0189Z" fill="#2F2E41"/>
</g>
<defs>
<clipPath id="clip0_124_1436">
<rect width="537" height="352" fill="white"/>
</clipPath>
</defs>
</svg>
